<svg width="22" height="21" viewBox="0 0 22 21" fill="none" xmlns="http://www.w3.org/2000/svg">
<path d="M10.5221 0C16.42 0.0406083 21.0272 4.75393 21.0235 10.5055C21.0198 16.4039 16.24 21.0037 10.5184 21C4.69713 20.9963 0.00594422 16.2627 0.0234865 10.4779C0.0401056 4.74286 4.65743 0.032302 10.5221 0ZM5.90016 8.75108C5.8383 8.87659 5.80784 8.97627 5.74782 9.05472C5.07567 9.92964 4.39706 10.7981 3.72676 11.6749C3.53287 11.9287 3.33067 12.1843 3.19034 12.4686C2.96875 12.918 3.19311 13.3167 3.68706 13.3961C3.92157 13.4339 4.16347 13.4423 4.40168 13.4432C5.36928 13.4459 6.33687 13.4496 7.30355 13.4349C7.69779 13.4293 7.90922 13.1848 7.89722 12.8101C7.88614 12.4584 7.64516 12.2305 7.26662 12.2277C6.56585 12.2212 5.86415 12.2212 5.16339 12.2175C5.09691 12.2175 5.02951 12.2175 4.93164 12.2175C4.9815 12.1409 5.00458 12.0994 5.0332 12.0616C5.40251 11.578 5.77552 11.0971 6.14206 10.6117C6.63602 9.95733 7.12905 9.30114 7.61562 8.64125C7.77719 8.42252 7.83166 8.17887 7.69502 7.9223C7.56114 7.67219 7.3414 7.56144 7.06534 7.56052C6.04881 7.55775 5.03228 7.55221 4.01575 7.56329C3.83756 7.56513 3.65013 7.62051 3.48394 7.69065C3.28451 7.77371 3.21157 7.95829 3.21527 8.17149C3.21896 8.38191 3.30944 8.55173 3.50148 8.62464C3.67506 8.69109 3.8671 8.73724 4.05268 8.74277C4.57433 8.75939 5.09599 8.75108 5.61764 8.75292C5.69889 8.75108 5.77829 8.75108 5.90016 8.75108ZM11.9116 11.3325C11.9107 11.3325 11.9089 11.3325 11.9079 11.3325C11.9079 10.8332 11.9126 10.333 11.9061 9.83366C11.9033 9.60662 11.7815 9.4405 11.5756 9.35097C11.3475 9.25222 11.1112 9.23099 10.9265 9.43127C10.7908 9.57893 10.6735 9.57801 10.5175 9.47372C9.91459 9.06856 9.04762 9.13778 8.47611 9.6943C7.86121 10.2933 7.67655 11.0362 7.85105 11.8622C7.98493 12.4935 8.33116 12.9863 8.91929 13.2835C9.46033 13.5567 9.98845 13.5069 10.5046 13.2069C10.7326 13.0749 10.7363 13.0777 10.9265 13.2466C11.0724 13.3758 11.2386 13.4146 11.426 13.373C11.7131 13.3084 11.8996 13.1109 11.907 12.8147C11.9199 12.3209 11.9116 11.8262 11.9116 11.3325ZM17.9351 11.4654C17.9305 10.1844 17.2113 9.35466 16.0922 9.23284C15.0896 9.12394 14.1986 9.68784 13.9142 10.6126C13.6262 11.5503 13.8939 12.535 14.6242 13.0611C15.3259 13.5668 16.0959 13.6056 16.8576 13.2161C17.6 12.8368 17.9074 12.1705 17.9351 11.4654ZM12.2671 10.4557C12.2671 10.7704 12.2671 11.0861 12.2671 11.4008C12.2671 11.8521 12.2625 12.3025 12.2699 12.7538C12.2754 13.1266 12.4878 13.3583 12.822 13.3777C13.1784 13.398 13.4037 13.2041 13.4563 12.8267C13.4674 12.7464 13.4701 12.6642 13.4701 12.583C13.4711 11.1645 13.472 9.7469 13.4711 8.32838C13.4711 8.23055 13.472 8.1318 13.4563 8.03582C13.4083 7.73495 13.2264 7.57528 12.9143 7.54667C12.6161 7.51991 12.4093 7.6482 12.3151 7.93522C12.2819 8.03582 12.2689 8.14749 12.268 8.25455C12.2653 8.98827 12.2671 9.72198 12.2671 10.4557Z" fill="white"/>
</svg>
